<svg width="378" height="193" viewBox="0 0 378 193" fill="none" xmlns="http://www.w3.org/2000/svg">
<path d="M322.437 88.5639L330 95V95C310.047 97.6481 293.215 111.159 286.315 130.067L280.5 146L234 98.5L243.134 95.9026C264.714 89.7659 280.819 71.7312 284.484 49.5964V49.5964L299.103 65.2293L322.437 88.5639Z" fill="#FE7400"/>
<path d="M133.491 87.9674L141 94.5V94.5C121.271 97.064 104.871 110.94 99.0759 129.972L94.5 145L47 98.5L56.906 95.4153C77.0578 89.1401 92.2502 72.4718 96.6356 51.8262V51.8262L110.157 64.6329L133.491 87.9674Z" fill="#FE7400"/>
<path d="M181.818 59.9302L190 47.5V47.5C190.107 70.1732 205.11 90.0774 226.877 96.4234L234 98.5L186.5 146.5L184.068 137.397C178.458 116.401 162.018 100.026 141 94.5V94.5L156.398 80.9735L181.818 59.9302Z" fill="#FE7400"/>
<circle cx="330.5" cy="47.5" r="47.5" fill="#FE7400"/>
<circle cx="233.5" cy="145.5" r="47.5" fill="#FE7400"/>
<circle cx="142.5" cy="47.5" r="47.5" fill="#FE7400"/>
<circle cx="47.5" cy="145.5" r="47.5" fill="#FE7400"/>
</svg>
